<svg xmlns="http://www.w3.org/2000/svg" viewBox="0 0 540 500"><defs><style>.cls-1{fill:none;}.cls-2{fill:#83441d;}.cls-3,.cls-4,.cls-5,.cls-6{fill:#fff;stroke:#000;}.cls-3,.cls-6{stroke-miterlimit:10;}.cls-3,.cls-4{stroke-width:5px;}.cls-5{stroke-width:8px;}.cls-6{stroke-width:7px;}</style></defs><title>ahorcado-6</title><g id="Capa_2" data-name="Capa 2"><g id="Capa_1-2" data-name="Capa 1"><g id="Grupo_9" data-name="Grupo 9"><rect class="cls-1" width="540" height="500"/><rect id="Rectángulo_8" data-name="Rectángulo 8" class="cls-2" y="0.16" width="32.78" height="499.84"/><rect id="Rectángulo_9" data-name="Rectángulo 9" class="cls-2" x="31.78" y="8.35" width="278.6" height="35.51"/><path id="Trazado_1" data-name="Trazado 1" class="cls-2" d="M30.58,143.06,143.43,30.21l30.76.15-143.61,144Z"/><path id="Rectángulo_10" data-name="Rectángulo 10" d="M273.14,43.86h10.92V90.29a5.45,5.45,0,0,1-5.46,5.46h0a5.45,5.45,0,0,1-5.46-5.46V43.86Z"/><g id="Grupo_6" data-name="Grupo 6"><g id="Elipse_1" data-name="Elipse 1"><circle class="cls-3" cx="278.6" cy="142.19" r="51.9"/><circle class="cls-4" cx="278.6" cy="142.19" r="49.17"/></g><g id="Grupo_4" data-name="Grupo 4"><line id="Línea_8" data-name="Línea 8" class="cls-4" x1="250.62" y1="117.88" x2="269.01" y2="136.27"/><line id="Línea_9" data-name="Línea 9" class="cls-4" x1="269.01" y1="117.88" x2="250.62" y2="136.27"/></g><g id="Grupo_3" data-name="Grupo 3"><line id="Línea_10" data-name="Línea 10" class="cls-4" x1="287.41" y1="117.88" x2="305.8" y2="136.27"/><line id="Línea_11" data-name="Línea 11" class="cls-4" x1="305.8" y1="117.88" x2="287.41" y2="136.27"/></g><g id="Grupo_5" data-name="Grupo 5"><line id="Línea_12" data-name="Línea 12" class="cls-5" x1="256" y1="157" x2="303" y2="157"/><g id="Rectángulo_11" data-name="Rectángulo 11"><path class="cls-3" d="M270.41,155.84h30v6.83a15,15,0,0,1-15,15h0a15,15,0,0,1-15-15v-6.83Z"/><path class="cls-4" d="M275.6,158.58h19.66a2.46,2.46,0,0,1,2.46,2.45v1.64A12.29,12.29,0,0,1,285.43,175h0a12.29,12.29,0,0,1-12.29-12.29V161a2.46,2.46,0,0,1,2.46-2.45Z"/></g></g></g><g id="Elipse_2" data-name="Elipse 2"><ellipse class="cls-6" cx="278.6" cy="261.91" rx="27.31" ry="68.28"/><ellipse class="cls-6" cx="278.6" cy="261.91" rx="24.58" ry="65.55"/></g><g id="Rectángulo_12" data-name="Rectángulo 12"><path d="M273.67,325.86h0a5.46,5.46,0,0,1,3.62,6.82L247,431.94a5.47,5.47,0,0,1-6.83,3.63h0a5.46,5.46,0,0,1-3.62-6.82l30.34-99.26A5.47,5.47,0,0,1,273.67,325.86Z"/><path d="M272.87,328.47h0a2.73,2.73,0,0,1,1.81,3.41l-30.35,99.26a2.73,2.73,0,0,1-3.41,1.82h0a2.74,2.74,0,0,1-1.81-3.42l30.35-99.25A2.73,2.73,0,0,1,272.87,328.47Z"/></g><g id="Rectángulo_13" data-name="Rectángulo 13"><path d="M317.37,435.57h0a5.46,5.46,0,0,1-6.82-3.63L280.2,332.68a5.46,5.46,0,0,1,3.63-6.82h0a5.46,5.46,0,0,1,6.82,3.63L321,428.75A5.46,5.46,0,0,1,317.37,435.57Z"/><path d="M316.57,433h0a2.74,2.74,0,0,1-3.41-1.82l-30.35-99.26a2.74,2.74,0,0,1,1.81-3.41h0a2.75,2.75,0,0,1,3.42,1.82l30.34,99.26A2.74,2.74,0,0,1,316.57,433Z"/></g><g id="Rectángulo_14" data-name="Rectángulo 14"><path d="M257.65,220.71h0a5.45,5.45,0,0,1-6.75,3.74l-65.64-18.82a5.47,5.47,0,0,1-3.75-6.76h0a5.46,5.46,0,0,1,6.76-3.74L253.91,214A5.46,5.46,0,0,1,257.65,220.71Z"/><path d="M255,220h0a2.74,2.74,0,0,1-3.38,1.88L186,203a2.73,2.73,0,0,1-1.87-3.38h0a2.74,2.74,0,0,1,3.38-1.88l65.63,18.83A2.73,2.73,0,0,1,255,220Z"/></g></g></g></g></svg>