<svg xmlns="http://www.w3.org/2000/svg" viewBox="0 0 109.92 28.48"><defs><style>.cls-1{isolation:isolate;}.cls-2{fill:#fff;}</style></defs><title>Grupo 1</title><g id="Capa_2" data-name="Capa 2"><g id="Capa_1-2" data-name="Capa 1"><g id="Grupo_1" data-name="Grupo 1"><g id="JIBEL" class="cls-1"><g class="cls-1"><path class="cls-2" d="M9.84,28.48a14.07,14.07,0,0,1-3.32-.36,11,11,0,0,1-4.84-2.5A11.31,11.31,0,0,1,0,23.76L5,19A9.75,9.75,0,0,0,7.06,21a4.09,4.09,0,0,0,2.3.68,3,3,0,0,0,2.34-1,4.35,4.35,0,0,0,.86-2.94V0h7.72V17.76a13.77,13.77,0,0,1-.68,4.56,8.74,8.74,0,0,1-2.08,3.32,9.21,9.21,0,0,1-3.34,2.12A12.39,12.39,0,0,1,9.84,28.48Z"/><path class="cls-2" d="M23.88,0h7.8V28h-7.8Z"/><path class="cls-2" d="M35.64,0H50a14,14,0,0,1,4.51.64A7.89,7.89,0,0,1,57.6,2.52a6.16,6.16,0,0,1,1.32,2A6.46,6.46,0,0,1,59.4,7v.08a6.12,6.12,0,0,1-1.21,3.94,7.85,7.85,0,0,1-3.09,2.3,9.65,9.65,0,0,1,4.07,2.42,6.12,6.12,0,0,1,1.51,4.42v.08A6.65,6.65,0,0,1,57.9,26q-2.77,2-7.82,2H35.64ZM48.08,11.16a5.13,5.13,0,0,0,2.74-.6,2,2,0,0,0,.94-1.84V8.64a2,2,0,0,0-.88-1.78,4.63,4.63,0,0,0-2.64-.62h-5v4.92Zm1.12,10.6A4.85,4.85,0,0,0,52,21.1a2.16,2.16,0,0,0,1-1.9v-.08A2.18,2.18,0,0,0,52,17.28a4.89,4.89,0,0,0-2.88-.68H43.2v5.16Z"/><path class="cls-2" d="M63.08,0H85.56V6.6H70.72v4.24H84.16V17H70.72V21.4h15V28H63.08Z"/><path class="cls-2" d="M88.6,0h7.76V21.2h13.56V28H88.6Z"/></g></g></g></g></g></svg>